HIERARCHY
ROOT Hips
{
	OFFSET -3.958830 18.904000 13.208200
	CHANNELS 6 Xposition Yposition Zposition Zrotation Yrotation Xrotation 
	JOINT LHipJoint
	{
		OFFSET 0.000000 0.000000 0.000000
		CHANNELS 3 Zrotation Yrotation Xrotation
		JOINT LeftUpLeg
		{
			OFFSET 1.800000 -1.400000 0.085000
			CHANNELS 3 Zrotation Yrotation Xrotation
			JOINT LeftLeg
			{
				OFFSET 2.215000 -6.000000 0.000000
				CHANNELS 3 Zrotation Yrotation Xrotation
				JOINT LeftFoot
				{
					OFFSET 2.500000 -6.900000 0.000000
					CHANNELS 3 Zrotation Yrotation Xrotation
					JOINT LeftToeBase
					{
						OFFSET 0.200000 -0.500000 1.950000
						CHANNELS 3 Zrotation Yrotation Xrotation
						End Site
						{
							OFFSET 0.000000 0.000000 0.000000
						}
					}
				}
			}
		}
	}
	JOINT RHipJoint
	{
		OFFSET 0.000000 0.000000 0.000000
		CHANNELS 3 Zrotation Yrotation Xrotation
		JOINT RightUpLeg
		{
			OFFSET -1.800000 -1.400000 0.085000
			CHANNELS 3 Zrotation Yrotation Xrotation
			JOINT RightLeg
			{
				OFFSET -2.215000 -6.000000 0.000000
				CHANNELS 3 Zrotation Yrotation Xrotation
				JOINT RightFoot
				{
					OFFSET -2.500000 -6.900000 0.000000
					CHANNELS 3 Zrotation Yrotation Xrotation
					JOINT RightToeBase
					{
						OFFSET -0.200000 -0.500000 1.950000
						CHANNELS 3 Zrotation Yrotation Xrotation
						End Site
						{
							OFFSET 0.000000 0.000000 0.000000
						}
					}
				}
			}
		}
	}
	JOINT LowerBack
	{
		OFFSET 0.000000 0.000000 0.000000
		CHANNELS 3 Zrotation Yrotation Xrotation
		JOINT Spine
		{
			OFFSET -0.087000 1.940000 -0.288900
			CHANNELS 3 Zrotation Yrotation Xrotation
			JOINT Spine1
			{
				OFFSET 0.000000 1.950000 0.060000
				CHANNELS 3 Zrotation Yrotation Xrotation
				JOINT Neck
				{
					OFFSET 0.000000 0.000000 0.000000
					CHANNELS 3 Zrotation Yrotation Xrotation
					JOINT Neck1
					{
						OFFSET 0.000000 1.600000 0.340000
						CHANNELS 3 Zrotation Yrotation Xrotation
						JOINT Head
						{
							OFFSET 0.000000 1.667000 -0.240000
							CHANNELS 3 Zrotation Yrotation Xrotation
							End Site
							{
								OFFSET 0.000000 0.000000 0.000000
							}
						}
					}
				}
				JOINT LeftShoulder
				{
					OFFSET 0.000000 0.000000 0.000000
					CHANNELS 3 Zrotation Yrotation Xrotation
					JOINT LeftArm
					{
						OFFSET 2.700000 1.550000 -0.730000
						CHANNELS 3 Zrotation Yrotation Xrotation
						JOINT LeftForeArm
						{
							OFFSET 5.450000 0.000000 0.000000
							CHANNELS 3 Zrotation Yrotation Xrotation
							JOINT LeftHand
							{
								OFFSET 3.450000 0.000000 0.000000
								CHANNELS 3 Zrotation Yrotation Xrotation
								JOINT LeftHandIndex1
								{
									OFFSET 0.750000 0.000000 0.000000
									CHANNELS 3 Zrotation Yrotation Xrotation
									End Site
									{
										OFFSET 0.000000 0.000000 0.000000
									}
								}
							}
						}
					}
				}
				JOINT RightShoulder
				{
					OFFSET 0.000000 0.000000 0.000000
					CHANNELS 3 Zrotation Yrotation Xrotation
					JOINT RightArm
					{
						OFFSET -2.700000 1.550000 -0.730000
						CHANNELS 3 Zrotation Yrotation Xrotation
						JOINT RightForeArm
						{
							OFFSET -5.450000 0.000000 0.000000
							CHANNELS 3 Zrotation Yrotation Xrotation
							JOINT RightHand
							{
								OFFSET -3.450000 0.000000 0.000000
								CHANNELS 3 Zrotation Yrotation Xrotation
								JOINT RightHandIndex1
								{
									OFFSET -0.750000 0.000000 0.000000
									CHANNELS 3 Zrotation Yrotation Xrotation
									End Site
									{
										OFFSET 0.000000 0.000000 0.000000
									}
								}
							}
						}
					}
				}
			}
		}
	}
}
MOTION
Frames: 10
Frame Time: 0.016667
0.182480 15.806430 -1.384730 1.204364 -9.452830 -3.367007 -15.405109 12.272291 3.467470 -7.530916 -2.925438 -1.330003 -21.157848 18.449473 38.925939 1.328888 10.044485 1.374585 0.567050 0.137510 0.631590 18.416711 -7.896462 4.894777 -9.153750 11.182042 -41.402231 36.590760 -22.718756 41.896744 -1.793583 -9.697738 1.196740 0.021620 -0.044190 0.262630 -3.526429 -3.935121 -9.040482 17.435750 -6.741684 31.795458 -0.894489 -3.229099 3.125440 1.740866 -7.384481 -9.742050 -17.047783 7.641498 35.799519 -11.364060 8.997550 -6.695430 -18.836277 0.523053 2.770175 -11.660509 14.329043 -2.451549 -120.434555 -49.532103 66.454098 -3.584776 3.869053 0.522470 0.053790 0.073860 0.157560 15.495813 4.212029 5.991614 29.679369 -11.834248 -10.323908 90.747033 49.907577 36.151827 2.139498 -2.202521 -0.051520 -0.052810 -0.251610 -0.323490 
0.189750 15.778040 -1.390300 0.473188 -9.835977 -3.277731 -15.407682 12.266345 3.467394 -6.345790 -3.168984 -1.922680 -22.424804 19.203543 39.079817 1.417476 10.249905 1.316355 0.562690 0.139840 0.630320 18.411284 -7.854528 4.913013 -8.657711 11.501350 -41.344305 37.485060 -22.732447 41.128560 -1.812046 -9.635148 1.224457 -0.000430 -0.046420 0.293200 -3.517338 -3.966280 -9.068909 18.296090 -6.918288 32.270922 -0.896831 -2.997234 2.844421 2.007191 -7.047610 -9.830510 -16.300799 7.135383 35.935649 -12.051680 9.128250 -6.800500 -18.410628 0.618071 2.703682 -11.450326 14.200287 -2.344373 -119.245916 -48.009349 63.350459 -3.577511 3.887932 0.511380 0.060900 0.097600 0.163870 14.520141 3.976593 6.150891 30.812865 -12.141205 -10.626811 92.197948 50.179163 37.116794 2.152672 -2.203230 -0.019890 -0.069180 -0.256460 -0.307990 
0.204820 15.771370 -1.389030 -0.410822 -10.679197 -3.328030 -15.414698 12.311937 3.467072 -5.176064 -3.283804 -2.333128 -23.400817 19.706997 38.917620 1.483282 10.345744 1.281760 0.572590 0.158680 0.643600 18.395570 -7.829566 4.887788 -8.022895 11.734529 -40.680850 38.102080 -22.576075 40.295809 -1.810438 -9.520781 1.262187 -0.010680 -0.068830 0.309240 -3.488141 -4.075711 -9.063247 19.197435 -7.311863 33.066108 -0.875987 -2.917099 2.197409 2.251734 -7.002696 -9.750853 -16.093785 7.347349 35.770631 -12.478180 9.588530 -6.975330 -17.988461 1.410378 2.477543 -11.898673 14.212624 -2.277070 -116.988310 -46.014465 58.717348 -3.550990 3.919172 0.494700 0.055590 0.117890 0.162020 13.602042 3.223220 6.032144 31.521838 -12.151162 -10.676050 94.125414 50.516291 38.692788 2.173266 -2.221734 0.015150 -0.097080 -0.272940 -0.298290 
0.222710 15.820030 -1.376510 -1.067252 -11.901334 -3.369217 -15.449577 12.474707 3.463753 -4.482834 -3.093943 -2.545279 -23.444141 19.623636 38.369538 1.500025 10.242494 1.312548 0.555360 0.147540 0.618560 18.344400 -7.799049 4.840761 -7.239264 12.031703 -39.684539 37.432450 -22.015132 40.024725 -1.769417 -9.350603 1.326918 -0.037690 -0.073420 0.308620 -3.359726 -4.386305 -9.055599 19.389643 -7.403246 34.002742 -0.347752 -2.579188 0.865904 2.545416 -7.225278 -9.800863 -16.616021 7.963240 35.876462 -12.560910 10.013140 -6.419550 -17.606154 2.458957 2.307751 -14.707509 14.032785 -2.541570 -112.289090 -43.987579 52.043655 -3.515701 3.924489 0.483300 0.048030 0.121040 0.167280 12.700534 2.641675 5.957662 32.764620 -11.856342 -10.805445 92.255690 51.549308 38.674892 2.201635 -2.208016 0.033810 -0.115900 -0.274340 -0.282330 
0.222440 15.894020 -1.358600 -0.842610 -13.628667 -2.601551 -15.475487 12.543385 3.468656 -4.905774 -2.789906 -3.452382 -23.317696 19.359216 37.627784 1.516120 10.044604 1.393716 0.520670 0.115140 0.583720 18.313960 -7.784197 4.852824 -6.904342 12.500582 -39.757688 35.874739 -21.176808 40.373410 -1.695717 -9.187567 1.390183 -0.071400 -0.044490 0.308910 -3.276867 -4.491048 -9.071381 18.205358 -6.690371 33.468802 0.281408 -2.065765 -0.486618 2.508899 -7.217882 -9.604790 -16.457266 8.516153 35.589323 -12.352240 10.655190 -4.825330 -17.198790 4.012059 2.238033 -17.836790 14.776434 -2.816250 -107.702118 -42.814987 47.145823 -3.511654 3.930508 0.444590 0.066380 0.101490 0.179900 12.422341 1.480197 5.464718 34.401623 -10.971947 -10.545698 88.362676 51.980313 37.162070 2.230738 -2.206662 0.044590 -0.130370 -0.275830 -0.258030 
0.219080 16.008020 -1.338500 -0.841313 -15.115182 -1.403343 -15.469367 12.604867 3.445744 -5.376286 -2.499238 -4.551523 -22.427799 18.534540 36.588312 1.476697 9.652814 1.515692 0.471140 0.069290 0.524420 18.305605 -7.840683 4.869044 -6.541171 12.804717 -39.846387 34.354235 -20.166125 40.221790 -1.592520 -8.934346 1.479092 -0.119940 -0.011570 0.320700 -3.265351 -4.458629 -9.064578 17.509838 -6.072729 32.113834 0.379308 -1.603788 -2.022673 2.614385 -6.923805 -9.375186 -15.719294 9.174891 35.732788 -11.558920 11.395400 -2.923730 -16.768171 5.757660 2.021044 -22.144753 15.293936 -3.454013 -100.717507 -41.158911 40.439972 -3.508865 3.930635 0.403520 0.089350 0.076910 0.182800 11.808445 -0.212020 5.010701 37.560037 -10.579292 -10.601127 83.019827 52.279099 34.724161 2.250093 -2.197775 0.065900 -0.162320 -0.257530 -0.230030 
0.218780 16.153230 -1.307020 -1.262278 -15.309400 0.474995 -15.455164 12.686880 3.413428 -4.997779 -2.626753 -6.299486 -21.294725 17.708278 36.070777 1.430658 9.300037 1.631296 0.422180 0.020220 0.476110 18.296396 -7.897276 4.870252 -6.498728 12.606433 -40.157082 33.389964 -19.234999 39.159419 -1.469053 -8.594568 1.596952 -0.164250 0.014430 0.314210 -3.255210 -4.487232 -9.045794 17.382286 -5.871947 29.637451 0.836523 -1.440035 -3.865660 2.759435 -6.697631 -9.010262 -15.139426 9.373097 35.746849 -11.268680 11.991270 -0.706900 -16.423164 7.931755 1.578115 -27.858214 15.435904 -4.259890 -91.246912 -38.866551 32.695884 -3.493038 3.891030 0.365720 0.106670 0.050850 0.192840 11.209655 -2.395188 4.540151 41.221151 -10.599187 -10.817472 76.040274 52.917026 31.790872 2.270974 -2.186245 0.072120 -0.187370 -0.256440 -0.207230 
0.199850 16.320360 -1.278810 -1.141449 -15.559055 2.088820 -15.446153 12.761158 3.377513 -4.795921 -2.598707 -7.882471 -20.007140 16.924912 35.564648 1.361105 8.955842 1.750278 0.368390 -0.051420 0.432360 18.279714 -7.975520 4.884660 -7.189061 12.392772 -40.494622 32.348541 -18.311248 38.304665 -1.343793 -8.290443 1.704544 -0.210190 0.050080 0.300590 -3.221268 -4.453473 -9.037845 16.145963 -5.259666 27.240721 1.745146 -1.192488 -5.701349 2.567078 -6.283080 -8.528050 -14.139269 9.554677 35.861934 -10.414180 12.417580 1.425110 -16.191795 10.196748 1.360711 -32.504620 16.959996 -5.279090 -82.965186 -36.163964 26.165754 -3.484182 3.827865 0.350790 0.121890 0.016440 0.198620 11.441529 -4.734648 3.777033 44.927360 -10.494428 -11.291460 66.991955 53.205936 27.720992 2.278962 -2.143021 0.055080 -0.197470 -0.247180 -0.197960 
0.176590 16.488760 -1.263930 -0.887389 -15.915392 3.482772 -15.450304 12.815159 3.313250 -4.662369 -2.699203 -9.714480 -17.726165 16.017194 36.067055 1.310710 8.603168 1.855471 0.344700 -0.069910 0.393320 18.255106 -8.030769 4.950273 -8.720818 12.146964 -41.263896 31.909904 -18.000841 38.118222 -1.291173 -8.213657 1.740806 -0.241920 0.060940 0.290400 -3.155101 -4.398942 -9.047206 14.196468 -4.473044 24.966612 3.109798 -0.919290 -7.049452 2.276868 -5.893389 -8.138873 -13.236347 9.691826 36.127760 -9.251890 12.508700 2.964660 -15.512218 12.273408 1.379809 -38.513858 18.474872 -7.121332 -73.514300 -34.088405 20.378687 -3.455665 3.762634 0.327540 0.117840 0.007170 0.216340 11.482706 -6.768483 2.959194 48.294677 -10.097535 -12.081113 56.569214 52.796291 22.767048 2.290336 -2.092729 0.070290 -0.217360 -0.258420 -0.172190 
0.161860 16.645930 -1.248760 -0.406791 -15.954298 4.922546 -15.437984 12.809302 3.253453 -4.851615 -2.922088 -11.629096 -15.177416 14.934133 36.669415 1.228012 8.250050 1.964751 0.309970 -0.124460 0.361220 18.253062 -8.136655 4.995142 -10.683787 11.553555 -42.153461 31.030614 -17.807455 38.251171 -1.230970 -8.192065 1.749591 -0.284870 0.085950 0.296540 -3.148376 -4.190617 -9.015676 12.286485 -3.838773 22.224936 4.056711 -0.905886 -8.165103 1.904877 -5.541386 -7.582730 -12.355270 9.512787 35.938341 -8.542840 12.436330 4.540490 -14.543594 14.521201 1.330586 -44.449388 19.566382 -9.081844 -63.701371 -32.324343 15.571351 -3.465096 3.673594 0.313570 0.129060 -0.015680 0.222580 11.353782 -9.120514 1.920600 52.262844 -9.327834 -13.151212 43.770834 51.076692 16.616553 2.286315 -2.001544 0.073030 -0.238870 -0.250390 -0.161080 
